# xmcd
#
# Track frame offsets: 
#        150
#        12633
#        23805
#        36894
#        47592
#        68490
#        79563
#        90411
#        102093
#        115257
#        125655
#        138153
#        150726
#        163125
#        177990
#        187845
#        201618
#        213816
#        224514
#        237387
#
# Disc length: 3321 seconds
#
# Revision: 0
# Processed by: cddbd v1.5.2PL0 Copyright (c) Steve Scherf et al.
# Submitted via: ExactAudioCopy v1.1
#
DISCID=110cf714
DTITLE=Various Artist - Bob Dylan's Country Selection [CD2]
DYEAR=2010
DGENRE=Country
TTITLE0=Merle Travis - Dark As A Dungeon
TTITLE1=Hank Snow - I'm Movin' On
TTITLE2=Jimmy Work - Making Believe
TTITLE3=Hank Snow - I'm Glad I Got To See You Once Again
TTITLE4=Marty Robbins - El Paso
TTITLE5=Hank Williams - A House Of Gold
TTITLE6=Webb Pierce - More And More
TTITLE7=Eddy Arnold - You Don't Know Me
TTITLE8=Hank Williams - Hey Good Lookin'
TTITLE9=The Stanley Brothers - Little Maggie
TTITLE10=The Carter Familiy - Hello Stranger
TTITLE11=Jimmie Rodgers - My Blue-Eyed Jane
TTITLE12=The Stanley Brothers - The Lonesome River
TTITLE13=The Stanley Brothers - White Dove
TTITLE14=Hank Williams - Honky Tonk Blues
TTITLE15=Bill Monroe - Blue Moon Of Kentucky
TTITLE16=Lefty Frizzell - You're Too Late
TTITLE17=Johnny Cash - Train Of Love
TTITLE18=Hank Williams - Can't Get You Off My Mind
TTITLE19=Bill Monroe - Voice From On High
EXTD=
EXTT0=
EXTT1=
EXTT2=
EXTT3=
EXTT4=
EXTT5=
EXTT6=
EXTT7=
EXTT8=
EXTT9=
EXTT10=
EXTT11=
EXTT12=
EXTT13=
EXTT14=
EXTT15=
EXTT16=
EXTT17=
EXTT18=
EXTT19=
PLAYORDER=
